<svg width="227" height="15" viewBox="0 0 227 15" fill="none" xmlns="http://www.w3.org/2000/svg">
<g clip-path="url(#clip0_2_35)">
<mask id="mask0_2_35" style="mask-type:luminance" maskUnits="userSpaceOnUse" x="0" y="0" width="227" height="15">
<path d="M227 0H0V15H227V0Z" fill="white"/>
</mask>
<g mask="url(#mask0_2_35)">
<path d="M12.4881 15.0001C16.1421 15.0001 17.171 13.4881 17.171 11.8081V9.64507C17.171 8.21708 16.3521 7.52408 15.2391 7.23007C16.2891 7.02007 16.982 6.05408 16.982 4.77308V3.40808C16.982 1.43407 15.7221 0.216064 12.4461 0.216064H0.413086V15.0001H12.4881ZM14.3781 11.2831C14.3781 12.4801 13.6011 12.8161 12.4881 12.8161H3.20608V8.42708H12.4881C13.6011 8.42708 14.3781 8.76307 14.3781 9.68707V11.2831ZM14.1891 5.08808C14.1891 5.90707 13.7481 6.24307 12.4461 6.24307H3.20608V2.40006H12.4461C13.7481 2.40006 14.1891 2.73607 14.1891 3.55507V5.08808Z" fill="white"/>
<path d="M45.098 15.0001V12.8161H33.107V0.216064H30.293V15.0001H45.098Z" fill="white"/>
<path d="M77.8125 15.0001L68.0475 0.216064H66.0105L56.1825 15.0001H59.2905L67.0395 3.09308L74.6625 15.0001H77.8125Z" fill="white"/>
<path d="M105.224 15.0001V12.8161H93.3178C92.0578 12.8161 91.4698 12.3331 91.4698 11.4511V3.76507C91.4698 2.88307 92.0578 2.40006 93.3178 2.40006H105.224V0.216064H93.3178C89.9578 0.216064 88.6768 1.66507 88.6768 3.78608V11.4301C88.6768 13.5511 89.9578 15.0001 93.3178 15.0001H105.224Z" fill="white"/>
<path d="M134.469 15.0001L127.917 7.10407L134.49 0.216064H131.172L125.607 6.22207H120.861V0.216064H118.068V15.0001H120.861V8.40607H125.67L131.256 15.0001H134.469Z" fill="white"/>
<path d="M159.91 15.0001C163.27 15.0001 164.551 13.5511 164.551 11.4301V3.78608C164.551 1.66507 163.27 0.216064 159.91 0.216064H150.145C146.785 0.216064 145.504 1.66507 145.504 3.78608V11.4301C145.504 13.5511 146.785 15.0001 150.145 15.0001H159.91ZM161.758 11.4511C161.758 12.3331 161.17 12.8161 159.91 12.8161H150.145C148.885 12.8161 148.297 12.3331 148.297 11.4511V3.76507C148.297 2.88307 148.885 2.40006 150.145 2.40006H159.91C161.17 2.40006 161.758 2.88307 161.758 3.76507V11.4511Z" fill="white"/>
<path d="M192.026 15.0001C195.386 15.0001 196.079 13.5511 196.079 11.4301V0.216064H193.286V11.4511C193.286 12.3331 192.698 12.8161 191.438 12.8161H182.261C181.001 12.8161 180.413 12.3331 180.413 11.4511V0.216064H177.62V11.4301C177.62 13.5511 178.901 15.0001 182.261 15.0001H192.026Z" fill="white"/>
<path d="M218.904 15.0001V2.40006H226.443V0.216064H208.362V2.40006H216.111V15.0001H218.904Z" fill="white"/>
</g>
</g>
<defs>
<clipPath id="clip0_2_35">
<rect width="227" height="15" fill="white"/>
</clipPath>
</defs>
</svg>
