<?xml version="1.0" standalone="no"?>
<!DOCTYPE svg PUBLIC "-//W3C//DTD SVG 20010904//EN"
 "http://www.w3.org/TR/2001/REC-SVG-20010904/DTD/svg10.dtd">
<svg version="1.0" xmlns="http://www.w3.org/2000/svg"
 width="964.000000pt" height="188.000000pt" viewBox="0 0 964.000000 188.000000"
 preserveAspectRatio="xMidYMid meet">

<g transform="translate(0.000000,188.000000) scale(0.100000,-0.100000)"
fill="#000000" stroke="none">
<path d="M0 945 l0 -935 4820 0 4820 0 0 935 0 935 -4820 0 -4820 0 0 -935z
m1500 50 l0 -795 -75 0 -75 0 0 789 0 790 48 4 c26 2 59 4 75 5 l27 2 0 -795z
m2930 315 c0 -342 3 -480 11 -480 31 0 87 41 166 123 88 91 271 309 280 334 4
9 31 13 99 13 88 0 94 -1 85 -18 -39 -73 -270 -332 -372 -417 l-71 -59 23 -16
c58 -37 129 -116 287 -318 93 -119 180 -229 192 -244 l21 -28 -98 1 -98 0
-120 160 c-217 290 -282 355 -366 366 l-39 6 0 -269 0 -269 -75 3 -75 4 0 788
0 789 48 4 c26 2 59 4 75 5 l27 2 0 -480z m-3782 320 c203 -26 282 -127 282
-360 0 -174 -39 -259 -142 -309 l-59 -28 45 -6 c88 -12 157 -66 195 -152 19
-43 26 -200 12 -280 -28 -159 -115 -251 -270 -284 -31 -7 -167 -11 -341 -11
l-290 0 0 710 0 710 38 1 c20 1 87 5 147 9 168 10 302 10 383 0z m5413 -4 c42
-8 96 -23 120 -34 97 -43 159 -138 185 -280 19 -108 19 -555 -1 -682 -36 -239
-115 -344 -305 -406 -46 -14 -106 -18 -363 -23 l-307 -6 0 707 0 707 53 6
c200 24 512 30 618 11z m-3537 -326 c153 -39 226 -128 246 -300 5 -47 11 -245
12 -441 l4 -357 -60 -5 c-33 -3 -63 -4 -67 -1 -4 2 -10 28 -14 57 -4 28 -9 55
-11 59 -3 4 -26 -6 -51 -22 -116 -74 -281 -116 -418 -108 -124 8 -190 50 -237
153 -21 45 -23 65 -23 195 0 173 13 217 80 279 58 54 126 73 258 72 98 0 268
-26 330 -50 16 -6 33 -11 38 -11 5 0 9 44 9 98 0 88 -3 104 -27 153 -32 62
-60 81 -153 105 -55 14 -81 15 -170 6 -58 -6 -134 -20 -170 -31 -36 -12 -70
-21 -76 -21 -6 0 -18 28 -28 62 -21 77 -19 79 102 102 48 8 96 17 107 20 63
12 247 5 319 -14z m1316 -9 c47 -12 89 -26 93 -30 4 -4 -2 -38 -14 -75 -17
-52 -26 -66 -38 -62 -181 61 -306 75 -403 47 -48 -14 -100 -56 -123 -100 -53
-104 -59 -507 -9 -631 24 -58 84 -107 153 -121 71 -15 192 -6 297 22 111 29
104 31 128 -34 25 -68 26 -66 -79 -99 -60 -19 -94 -22 -235 -23 -183 0 -221 7
-296 58 -58 38 -96 91 -126 172 -19 53 -22 85 -26 285 -5 298 15 398 99 493
52 60 91 83 181 107 99 27 276 23 398 -9z m3594 -1 c94 -30 152 -88 186 -185
21 -63 24 -91 28 -290 6 -326 -20 -448 -117 -538 -68 -64 -139 -88 -281 -94
-296 -14 -434 64 -481 272 -19 84 -19 509 0 585 53 211 177 284 466 276 99 -3
147 -9 199 -26z m1215 19 c62 -13 109 -44 140 -92 l24 -37 31 21 c55 36 169
88 231 104 76 19 187 19 253 0 70 -21 116 -64 144 -133 22 -56 23 -65 26 -514
l3 -458 -80 0 -81 0 0 433 c0 403 -1 435 -19 467 -27 51 -70 73 -146 73 -83 0
-152 -18 -252 -64 l-83 -38 0 -435 0 -436 -75 0 -75 0 0 383 c0 210 -5 411
-10 446 -15 107 -56 142 -163 143 -92 0 -172 -19 -259 -63 l-78 -39 0 -435 0
-435 -75 0 -75 0 0 550 0 550 70 0 70 0 0 -32 c0 -18 3 -43 6 -54 6 -21 8 -21
62 15 121 80 274 110 411 80z"/>
<path d="M350 1504 c-41 -2 -85 -6 -98 -9 l-22 -5 2 -253 3 -252 163 2 c196 2
258 16 313 72 46 45 60 95 61 207 0 184 -50 232 -245 238 -56 2 -136 2 -177 0z"/>
<path d="M238 854 c-5 -4 -8 -124 -8 -266 l0 -260 223 4 c208 3 225 5 264 26
62 32 91 82 105 179 22 149 -13 252 -100 295 -44 21 -62 23 -262 26 -118 2
-218 1 -222 -4z"/>
<path d="M5655 1494 c-27 -2 -65 -6 -82 -9 l-33 -6 0 -575 0 -576 218 4 c197
4 222 6 274 27 145 57 188 198 188 616 0 205 -12 318 -42 387 -24 57 -49 80
-113 110 -44 20 -67 22 -205 24 -85 1 -177 0 -205 -2z"/>
<path d="M2130 732 c-56 -28 -75 -78 -75 -197 1 -112 18 -162 68 -199 75 -55
308 -16 451 74 l46 30 0 129 0 129 -67 16 c-161 39 -364 48 -423 18z"/>
<path d="M7125 1180 c-127 -23 -182 -70 -207 -178 -20 -93 -16 -420 6 -511 35
-138 117 -187 299 -179 146 6 210 45 246 148 32 91 31 524 -1 600 -33 77 -103
115 -228 124 -36 3 -87 1 -115 -4z"/>
</g>
</svg>
