<svg width="18" height="18" viewBox="0 0 18 18" fill="none" xmlns="http://www.w3.org/2000/svg">
<g clip-path="url(#clip0_1_17)">
<g clip-path="url(#clip1_1_17)">
<g clip-path="url(#clip2_1_17)">
<mask id="mask0_1_17" style="mask-type:luminance" maskUnits="userSpaceOnUse" x="0" y="0" width="18" height="18">
<path d="M18 0H0V18H18V0Z" fill="white"/>
</mask>
<g mask="url(#mask0_1_17)">
<path fill-rule="evenodd" clip-rule="evenodd" d="M18 9C18 13.9706 13.9706 18 9 18C4.02943 18 0 13.9706 0 9C0 4.02943 4.02943 0 9 0C13.9706 0 18 4.02943 18 9ZM9.3225 6.64418C8.4471 7.00828 6.69758 7.76188 4.0739 8.90497C3.64785 9.07438 3.42467 9.24012 3.40435 9.4022C3.37 9.6761 3.713 9.78395 4.18008 9.93083C4.2436 9.9508 4.30942 9.9715 4.37692 9.99343C4.83645 10.1428 5.4546 10.3175 5.77593 10.3245C6.06743 10.3308 6.39277 10.2106 6.75195 9.96397C9.20335 8.30923 10.4688 7.47283 10.5482 7.4548C10.6042 7.44208 10.6819 7.42607 10.7346 7.47285C10.7872 7.51962 10.782 7.6082 10.7764 7.63198C10.7425 7.77682 9.39608 9.02855 8.6993 9.6763C8.4821 9.87825 8.32802 10.0215 8.29653 10.0542C8.22598 10.1275 8.15408 10.1968 8.08495 10.2634C7.65805 10.675 7.3379 10.9836 8.10268 11.4875C8.4702 11.7297 8.76428 11.93 9.05768 12.1298C9.3781 12.348 9.69767 12.5657 10.1112 12.8367C10.2165 12.9058 10.3172 12.9775 10.4151 13.0474C10.788 13.3132 11.123 13.552 11.5369 13.514C11.7774 13.4918 12.0258 13.2657 12.152 12.5912C12.4501 10.9973 13.0362 7.54383 13.1716 6.1207C13.1835 5.99603 13.1686 5.83645 13.1566 5.7664C13.1446 5.69635 13.1195 5.59655 13.0285 5.52268C12.9207 5.43517 12.7542 5.41673 12.6798 5.41803C12.3412 5.424 11.8219 5.60458 9.3225 6.64418Z" fill="white"/>
</g>
</g>
</g>
</g>
<defs>
<clipPath id="clip0_1_17">
<rect width="18" height="18" fill="white"/>
</clipPath>
<clipPath id="clip1_1_17">
<rect width="18" height="18" fill="white"/>
</clipPath>
<clipPath id="clip2_1_17">
<rect width="18" height="18" fill="white"/>
</clipPath>
</defs>
</svg>
